<mxfile host="app.diagrams.net" modified="2023-07-13T00:52:59.361Z" agent="Mozilla/5.0 (Windows NT 10.0; Win64; x64) AppleWebKit/537.36 (KHTML, like Gecko) Chrome/114.0.0.0 Safari/537.36 Edg/114.0.1823.79" etag="zJTr2G7rDiOkPpIYGock" version="21.6.2" type="github">
  <diagram name="第 1 页" id="pVb3hqNp56i_6uYso-XV">
    <mxGraphModel dx="1434" dy="788" grid="1" gridSize="10" guides="1" tooltips="1" connect="1" arrows="1" fold="1" page="1" pageScale="1" pageWidth="827" pageHeight="1169" math="0" shadow="0">
      <root>
        <mxCell id="0" />
        <mxCell id="1" parent="0" />
        <mxCell id="MLS8xSfH1ZjcMcFxgSS3-7" value="党政通app" style="shape=umlLifeline;perimeter=lifelinePerimeter;whiteSpace=wrap;html=1;container=1;dropTarget=0;collapsible=0;recursiveResize=0;outlineConnect=0;portConstraint=eastwest;newEdgeStyle={&quot;edgeStyle&quot;:&quot;elbowEdgeStyle&quot;,&quot;elbow&quot;:&quot;vertical&quot;,&quot;curved&quot;:0,&quot;rounded&quot;:0};" parent="1" vertex="1">
          <mxGeometry x="240" y="230" width="100" height="730" as="geometry" />
        </mxCell>
        <mxCell id="MLS8xSfH1ZjcMcFxgSS3-24" value="" style="html=1;points=[];perimeter=orthogonalPerimeter;outlineConnect=0;targetShapes=umlLifeline;portConstraint=eastwest;newEdgeStyle={&quot;edgeStyle&quot;:&quot;elbowEdgeStyle&quot;,&quot;elbow&quot;:&quot;vertical&quot;,&quot;curved&quot;:0,&quot;rounded&quot;:0};" parent="MLS8xSfH1ZjcMcFxgSS3-7" vertex="1">
          <mxGeometry x="45" y="60" width="10" height="670" as="geometry" />
        </mxCell>
        <mxCell id="95MfZzoMsUfUYtKrwYVT-2" value="判断是否签名成功，若是成功继续往下流转" style="html=1;align=left;spacingLeft=2;endArrow=block;rounded=0;edgeStyle=orthogonalEdgeStyle;curved=0;rounded=0;" edge="1" target="MLS8xSfH1ZjcMcFxgSS3-24" parent="MLS8xSfH1ZjcMcFxgSS3-7">
          <mxGeometry relative="1" as="geometry">
            <mxPoint x="55" y="410" as="sourcePoint" />
            <Array as="points">
              <mxPoint x="85" y="410" />
              <mxPoint x="85" y="440" />
            </Array>
            <mxPoint x="60" y="440" as="targetPoint" />
          </mxGeometry>
        </mxCell>
        <mxCell id="MLS8xSfH1ZjcMcFxgSS3-8" value="党政通app 签章SDK" style="shape=umlLifeline;perimeter=lifelinePerimeter;whiteSpace=wrap;html=1;container=1;dropTarget=0;collapsible=0;recursiveResize=0;outlineConnect=0;portConstraint=eastwest;newEdgeStyle={&quot;edgeStyle&quot;:&quot;elbowEdgeStyle&quot;,&quot;elbow&quot;:&quot;vertical&quot;,&quot;curved&quot;:0,&quot;rounded&quot;:0};" parent="1" vertex="1">
          <mxGeometry x="550" y="230" width="100" height="730" as="geometry" />
        </mxCell>
        <mxCell id="MLS8xSfH1ZjcMcFxgSS3-64" value="" style="html=1;points=[];perimeter=orthogonalPerimeter;outlineConnect=0;targetShapes=umlLifeline;portConstraint=eastwest;newEdgeStyle={&quot;edgeStyle&quot;:&quot;elbowEdgeStyle&quot;,&quot;elbow&quot;:&quot;vertical&quot;,&quot;curved&quot;:0,&quot;rounded&quot;:0};" parent="MLS8xSfH1ZjcMcFxgSS3-8" vertex="1">
          <mxGeometry x="45" y="310" width="10" height="90" as="geometry" />
        </mxCell>
        <mxCell id="MLS8xSfH1ZjcMcFxgSS3-9" value="电子印章系统" style="shape=umlLifeline;perimeter=lifelinePerimeter;whiteSpace=wrap;html=1;container=1;dropTarget=0;collapsible=0;recursiveResize=0;outlineConnect=0;portConstraint=eastwest;newEdgeStyle={&quot;edgeStyle&quot;:&quot;elbowEdgeStyle&quot;,&quot;elbow&quot;:&quot;vertical&quot;,&quot;curved&quot;:0,&quot;rounded&quot;:0};" parent="1" vertex="1">
          <mxGeometry x="690" y="230" width="100" height="730" as="geometry" />
        </mxCell>
        <mxCell id="MLS8xSfH1ZjcMcFxgSS3-45" value="" style="html=1;points=[];perimeter=orthogonalPerimeter;outlineConnect=0;targetShapes=umlLifeline;portConstraint=eastwest;newEdgeStyle={&quot;edgeStyle&quot;:&quot;elbowEdgeStyle&quot;,&quot;elbow&quot;:&quot;vertical&quot;,&quot;curved&quot;:0,&quot;rounded&quot;:0};" parent="MLS8xSfH1ZjcMcFxgSS3-9" vertex="1">
          <mxGeometry x="45" y="190" width="10" height="80" as="geometry" />
        </mxCell>
        <mxCell id="MLS8xSfH1ZjcMcFxgSS3-70" value="" style="html=1;points=[];perimeter=orthogonalPerimeter;outlineConnect=0;targetShapes=umlLifeline;portConstraint=eastwest;newEdgeStyle={&quot;edgeStyle&quot;:&quot;elbowEdgeStyle&quot;,&quot;elbow&quot;:&quot;vertical&quot;,&quot;curved&quot;:0,&quot;rounded&quot;:0};" parent="MLS8xSfH1ZjcMcFxgSS3-9" vertex="1">
          <mxGeometry x="45" y="560" width="10" height="40" as="geometry" />
        </mxCell>
        <mxCell id="MLS8xSfH1ZjcMcFxgSS3-77" value="" style="html=1;points=[];perimeter=orthogonalPerimeter;outlineConnect=0;targetShapes=umlLifeline;portConstraint=eastwest;newEdgeStyle={&quot;edgeStyle&quot;:&quot;elbowEdgeStyle&quot;,&quot;elbow&quot;:&quot;vertical&quot;,&quot;curved&quot;:0,&quot;rounded&quot;:0};" parent="MLS8xSfH1ZjcMcFxgSS3-9" vertex="1">
          <mxGeometry x="45" y="620" width="10" height="40" as="geometry" />
        </mxCell>
        <mxCell id="95MfZzoMsUfUYtKrwYVT-3" value="" style="html=1;points=[];perimeter=orthogonalPerimeter;outlineConnect=0;targetShapes=umlLifeline;portConstraint=eastwest;newEdgeStyle={&quot;edgeStyle&quot;:&quot;elbowEdgeStyle&quot;,&quot;elbow&quot;:&quot;vertical&quot;,&quot;curved&quot;:0,&quot;rounded&quot;:0};" vertex="1" parent="MLS8xSfH1ZjcMcFxgSS3-9">
          <mxGeometry x="45" y="490" width="10" height="40" as="geometry" />
        </mxCell>
        <mxCell id="MLS8xSfH1ZjcMcFxgSS3-10" value="" style="shape=umlLifeline;perimeter=lifelinePerimeter;whiteSpace=wrap;html=1;container=1;dropTarget=0;collapsible=0;recursiveResize=0;outlineConnect=0;portConstraint=eastwest;newEdgeStyle={&quot;edgeStyle&quot;:&quot;elbowEdgeStyle&quot;,&quot;elbow&quot;:&quot;vertical&quot;,&quot;curved&quot;:0,&quot;rounded&quot;:0};participant=umlActor;" parent="1" vertex="1">
          <mxGeometry x="90" y="230" width="20" height="730" as="geometry" />
        </mxCell>
        <mxCell id="MLS8xSfH1ZjcMcFxgSS3-22" value="" style="html=1;points=[];perimeter=orthogonalPerimeter;outlineConnect=0;targetShapes=umlLifeline;portConstraint=eastwest;newEdgeStyle={&quot;edgeStyle&quot;:&quot;elbowEdgeStyle&quot;,&quot;elbow&quot;:&quot;vertical&quot;,&quot;curved&quot;:0,&quot;rounded&quot;:0};" parent="MLS8xSfH1ZjcMcFxgSS3-10" vertex="1">
          <mxGeometry x="5" y="60" width="10" height="670" as="geometry" />
        </mxCell>
        <mxCell id="MLS8xSfH1ZjcMcFxgSS3-16" value="党政通系统" style="shape=umlLifeline;perimeter=lifelinePerimeter;whiteSpace=wrap;html=1;container=1;dropTarget=0;collapsible=0;recursiveResize=0;outlineConnect=0;portConstraint=eastwest;newEdgeStyle={&quot;edgeStyle&quot;:&quot;elbowEdgeStyle&quot;,&quot;elbow&quot;:&quot;vertical&quot;,&quot;curved&quot;:0,&quot;rounded&quot;:0};" parent="1" vertex="1">
          <mxGeometry x="400" y="230" width="100" height="740" as="geometry" />
        </mxCell>
        <mxCell id="MLS8xSfH1ZjcMcFxgSS3-20" value="" style="html=1;points=[];perimeter=orthogonalPerimeter;outlineConnect=0;targetShapes=umlLifeline;portConstraint=eastwest;newEdgeStyle={&quot;edgeStyle&quot;:&quot;elbowEdgeStyle&quot;,&quot;elbow&quot;:&quot;vertical&quot;,&quot;curved&quot;:0,&quot;rounded&quot;:0};" parent="MLS8xSfH1ZjcMcFxgSS3-16" vertex="1">
          <mxGeometry x="45" y="80" width="10" height="190" as="geometry" />
        </mxCell>
        <mxCell id="MLS8xSfH1ZjcMcFxgSS3-63" value="计算PDF摘要值" style="html=1;align=left;spacingLeft=2;endArrow=block;rounded=0;edgeStyle=orthogonalEdgeStyle;curved=0;rounded=0;" parent="MLS8xSfH1ZjcMcFxgSS3-16" target="MLS8xSfH1ZjcMcFxgSS3-20" edge="1">
          <mxGeometry relative="1" as="geometry">
            <mxPoint x="55" y="90" as="sourcePoint" />
            <Array as="points">
              <mxPoint x="85" y="90" />
              <mxPoint x="85" y="120" />
            </Array>
            <mxPoint x="60" y="120" as="targetPoint" />
          </mxGeometry>
        </mxCell>
        <mxCell id="MLS8xSfH1ZjcMcFxgSS3-68" value="" style="html=1;points=[];perimeter=orthogonalPerimeter;outlineConnect=0;targetShapes=umlLifeline;portConstraint=eastwest;newEdgeStyle={&quot;edgeStyle&quot;:&quot;elbowEdgeStyle&quot;,&quot;elbow&quot;:&quot;vertical&quot;,&quot;curved&quot;:0,&quot;rounded&quot;:0};" parent="MLS8xSfH1ZjcMcFxgSS3-16" vertex="1">
          <mxGeometry x="45" y="480" width="10" height="250" as="geometry" />
        </mxCell>
        <mxCell id="MLS8xSfH1ZjcMcFxgSS3-84" value="根据签名值，签名证书，印章数据，关键字调用关键字盖章方法" style="html=1;align=left;spacingLeft=2;endArrow=block;rounded=0;edgeStyle=orthogonalEdgeStyle;curved=0;rounded=0;" parent="MLS8xSfH1ZjcMcFxgSS3-16" target="MLS8xSfH1ZjcMcFxgSS3-68" edge="1">
          <mxGeometry relative="1" as="geometry">
            <mxPoint x="55" y="680" as="sourcePoint" />
            <Array as="points">
              <mxPoint x="85" y="680" />
              <mxPoint x="85" y="710" />
            </Array>
            <mxPoint x="60" y="710" as="targetPoint" />
          </mxGeometry>
        </mxCell>
        <mxCell id="MLS8xSfH1ZjcMcFxgSS3-25" value="党政通app个人签章" style="html=1;verticalAlign=bottom;endArrow=block;edgeStyle=elbowEdgeStyle;elbow=vertical;curved=0;rounded=0;" parent="1" target="MLS8xSfH1ZjcMcFxgSS3-7" edge="1">
          <mxGeometry width="80" relative="1" as="geometry">
            <mxPoint x="100" y="290" as="sourcePoint" />
            <mxPoint x="180" y="290" as="targetPoint" />
          </mxGeometry>
        </mxCell>
        <mxCell id="MLS8xSfH1ZjcMcFxgSS3-34" value="调用党政通创建二维码接口" style="html=1;verticalAlign=bottom;endArrow=block;edgeStyle=elbowEdgeStyle;elbow=vertical;curved=0;rounded=0;" parent="1" target="MLS8xSfH1ZjcMcFxgSS3-16" edge="1">
          <mxGeometry width="80" relative="1" as="geometry">
            <mxPoint x="300" y="310" as="sourcePoint" />
            <mxPoint x="370" y="310" as="targetPoint" />
          </mxGeometry>
        </mxCell>
        <mxCell id="MLS8xSfH1ZjcMcFxgSS3-49" value="根据摘要值，调用创建二维码接口" style="html=1;verticalAlign=bottom;endArrow=block;edgeStyle=elbowEdgeStyle;elbow=vertical;curved=0;rounded=0;" parent="1" target="MLS8xSfH1ZjcMcFxgSS3-9" edge="1">
          <mxGeometry width="80" relative="1" as="geometry">
            <mxPoint x="460" y="420" as="sourcePoint" />
            <mxPoint x="540" y="420" as="targetPoint" />
          </mxGeometry>
        </mxCell>
        <mxCell id="MLS8xSfH1ZjcMcFxgSS3-50" value="返回二维码唯一标识" style="html=1;verticalAlign=bottom;endArrow=open;dashed=1;endSize=8;edgeStyle=elbowEdgeStyle;elbow=vertical;curved=0;rounded=0;" parent="1" target="MLS8xSfH1ZjcMcFxgSS3-20" edge="1">
          <mxGeometry relative="1" as="geometry">
            <mxPoint x="740" y="500" as="sourcePoint" />
            <mxPoint x="660" y="500" as="targetPoint" />
          </mxGeometry>
        </mxCell>
        <mxCell id="MLS8xSfH1ZjcMcFxgSS3-61" value="接口返回二维码唯一标识" style="html=1;verticalAlign=bottom;endArrow=open;dashed=1;endSize=8;edgeStyle=elbowEdgeStyle;elbow=vertical;curved=0;rounded=0;" parent="1" target="MLS8xSfH1ZjcMcFxgSS3-24" edge="1">
          <mxGeometry relative="1" as="geometry">
            <mxPoint x="440" y="500" as="sourcePoint" />
            <mxPoint x="360" y="500" as="targetPoint" />
          </mxGeometry>
        </mxCell>
        <mxCell id="MLS8xSfH1ZjcMcFxgSS3-66" value="传入二维码唯一标识，调用签章SDK对数据进行签名" style="html=1;verticalAlign=bottom;endArrow=block;edgeStyle=elbowEdgeStyle;elbow=vertical;curved=0;rounded=0;" parent="1" target="MLS8xSfH1ZjcMcFxgSS3-8" edge="1">
          <mxGeometry width="80" relative="1" as="geometry">
            <mxPoint x="300" y="540" as="sourcePoint" />
            <mxPoint x="380" y="540" as="targetPoint" />
          </mxGeometry>
        </mxCell>
        <mxCell id="MLS8xSfH1ZjcMcFxgSS3-67" value="返回签名结果" style="html=1;verticalAlign=bottom;endArrow=open;dashed=1;endSize=8;edgeStyle=elbowEdgeStyle;elbow=vertical;curved=0;rounded=0;" parent="1" target="MLS8xSfH1ZjcMcFxgSS3-24" edge="1">
          <mxGeometry relative="1" as="geometry">
            <mxPoint x="600" y="630" as="sourcePoint" />
            <mxPoint x="520" y="630" as="targetPoint" />
          </mxGeometry>
        </mxCell>
        <mxCell id="MLS8xSfH1ZjcMcFxgSS3-69" value="传入签名结果，以及二维码唯一标识调用党政通接口" style="html=1;verticalAlign=bottom;endArrow=block;edgeStyle=elbowEdgeStyle;elbow=vertical;curved=0;rounded=0;" parent="1" target="MLS8xSfH1ZjcMcFxgSS3-68" edge="1">
          <mxGeometry width="80" relative="1" as="geometry">
            <mxPoint x="300" y="710" as="sourcePoint" />
            <mxPoint x="439.5" y="710" as="targetPoint" />
          </mxGeometry>
        </mxCell>
        <mxCell id="MLS8xSfH1ZjcMcFxgSS3-71" value="调用印章列表获取接口" style="html=1;verticalAlign=bottom;endArrow=block;edgeStyle=elbowEdgeStyle;elbow=vertical;curved=0;rounded=0;" parent="1" edge="1">
          <mxGeometry width="80" relative="1" as="geometry">
            <mxPoint x="460" y="790" as="sourcePoint" />
            <mxPoint x="739.5" y="790" as="targetPoint" />
          </mxGeometry>
        </mxCell>
        <mxCell id="MLS8xSfH1ZjcMcFxgSS3-72" value="返回印章列表数据" style="html=1;verticalAlign=bottom;endArrow=open;dashed=1;endSize=8;edgeStyle=elbowEdgeStyle;elbow=vertical;curved=0;rounded=0;" parent="1" edge="1">
          <mxGeometry relative="1" as="geometry">
            <mxPoint x="730" y="830" as="sourcePoint" />
            <mxPoint x="455" y="830" as="targetPoint" />
          </mxGeometry>
        </mxCell>
        <mxCell id="MLS8xSfH1ZjcMcFxgSS3-78" value="根据印章列表中印章唯一标识调用获取印章数据接口" style="html=1;verticalAlign=bottom;endArrow=block;edgeStyle=elbowEdgeStyle;elbow=vertical;curved=0;rounded=0;" parent="1" edge="1" source="MLS8xSfH1ZjcMcFxgSS3-68">
          <mxGeometry width="80" relative="1" as="geometry">
            <mxPoint x="460.25" y="850" as="sourcePoint" />
            <mxPoint x="739.75" y="850" as="targetPoint" />
          </mxGeometry>
        </mxCell>
        <mxCell id="MLS8xSfH1ZjcMcFxgSS3-79" value="返回印章数据" style="html=1;verticalAlign=bottom;endArrow=open;dashed=1;endSize=8;edgeStyle=elbowEdgeStyle;elbow=vertical;curved=0;rounded=0;" parent="1" target="MLS8xSfH1ZjcMcFxgSS3-68" edge="1">
          <mxGeometry relative="1" as="geometry">
            <mxPoint x="740" y="890" as="sourcePoint" />
            <mxPoint x="660" y="890" as="targetPoint" />
          </mxGeometry>
        </mxCell>
        <mxCell id="MLS8xSfH1ZjcMcFxgSS3-85" value="返回签章成功" style="html=1;verticalAlign=bottom;endArrow=open;dashed=1;endSize=8;edgeStyle=elbowEdgeStyle;elbow=vertical;curved=0;rounded=0;" parent="1" edge="1">
          <mxGeometry relative="1" as="geometry">
            <mxPoint x="450" y="960" as="sourcePoint" />
            <mxPoint x="290" y="960" as="targetPoint" />
          </mxGeometry>
        </mxCell>
        <mxCell id="MLS8xSfH1ZjcMcFxgSS3-86" value="返回签章成功" style="html=1;verticalAlign=bottom;endArrow=open;dashed=1;endSize=8;edgeStyle=elbowEdgeStyle;elbow=vertical;curved=0;rounded=0;" parent="1" target="MLS8xSfH1ZjcMcFxgSS3-10" edge="1">
          <mxGeometry x="0.108" y="-10" relative="1" as="geometry">
            <mxPoint x="280" y="960" as="sourcePoint" />
            <mxPoint x="200" y="960" as="targetPoint" />
            <mxPoint as="offset" />
          </mxGeometry>
        </mxCell>
        <mxCell id="MLS8xSfH1ZjcMcFxgSS3-87" value="用户" style="text;html=1;align=center;verticalAlign=middle;resizable=0;points=[];autosize=1;strokeColor=none;fillColor=none;" parent="1" vertex="1">
          <mxGeometry x="75" y="258" width="50" height="30" as="geometry" />
        </mxCell>
        <mxCell id="95MfZzoMsUfUYtKrwYVT-4" value="根据传入的二位码标识调用二维码查询状态接口" style="html=1;verticalAlign=bottom;endArrow=block;edgeStyle=elbowEdgeStyle;elbow=vertical;curved=0;rounded=0;" edge="1" parent="1" target="MLS8xSfH1ZjcMcFxgSS3-9">
          <mxGeometry width="80" relative="1" as="geometry">
            <mxPoint x="460" y="720" as="sourcePoint" />
            <mxPoint x="540" y="720" as="targetPoint" />
          </mxGeometry>
        </mxCell>
        <mxCell id="95MfZzoMsUfUYtKrwYVT-5" value="返回二维码相关信息，解析获取签名值和签名证书" style="html=1;verticalAlign=bottom;endArrow=open;dashed=1;endSize=8;edgeStyle=elbowEdgeStyle;elbow=vertical;curved=0;rounded=0;" edge="1" parent="1" target="MLS8xSfH1ZjcMcFxgSS3-68">
          <mxGeometry relative="1" as="geometry">
            <mxPoint x="740" y="760" as="sourcePoint" />
            <mxPoint x="660" y="760" as="targetPoint" />
          </mxGeometry>
        </mxCell>
      </root>
    </mxGraphModel>
  </diagram>
</mxfile>
